<mxfile host="app.diagrams.net" modified="2024-07-15T21:10:57.370Z" agent="Mozilla/5.0 (Windows NT 10.0; Win64; x64) AppleWebKit/537.36 (KHTML, like Gecko) Chrome/125.0.0.0 Safari/537.36" etag="9v0dIZMzSkjN0g2cbS94" version="24.6.5" type="device">
  <diagram name="Page-1" id="UP-j4dT4G4uag2Q95mSZ">
    <mxGraphModel dx="2074" dy="1106" grid="1" gridSize="10" guides="1" tooltips="1" connect="1" arrows="1" fold="1" page="1" pageScale="1" pageWidth="1100" pageHeight="850" math="0" shadow="0">
      <root>
        <mxCell id="0" />
        <mxCell id="1" parent="0" />
        <mxCell id="sTcFPLHfSmXInMaUVxOe-12" value="Recent Payments" style="swimlane;whiteSpace=wrap;html=1;" vertex="1" parent="1">
          <mxGeometry x="819" y="469" width="280" height="380" as="geometry">
            <mxRectangle x="819" y="469" width="140" height="30" as="alternateBounds" />
          </mxGeometry>
        </mxCell>
        <mxCell id="sTcFPLHfSmXInMaUVxOe-13" value="Name" style="text;html=1;align=center;verticalAlign=middle;resizable=0;points=[];autosize=1;strokeColor=none;fillColor=none;" vertex="1" parent="sTcFPLHfSmXInMaUVxOe-12">
          <mxGeometry y="30" width="60" height="30" as="geometry" />
        </mxCell>
        <mxCell id="sTcFPLHfSmXInMaUVxOe-14" value="Amount" style="text;html=1;align=center;verticalAlign=middle;resizable=0;points=[];autosize=1;strokeColor=none;fillColor=none;" vertex="1" parent="sTcFPLHfSmXInMaUVxOe-12">
          <mxGeometry x="110" y="30" width="60" height="30" as="geometry" />
        </mxCell>
        <mxCell id="sTcFPLHfSmXInMaUVxOe-15" value="Date" style="text;html=1;align=center;verticalAlign=middle;resizable=0;points=[];autosize=1;strokeColor=none;fillColor=none;" vertex="1" parent="sTcFPLHfSmXInMaUVxOe-12">
          <mxGeometry x="220" y="30" width="50" height="30" as="geometry" />
        </mxCell>
        <mxCell id="sTcFPLHfSmXInMaUVxOe-16" value="" style="endArrow=none;html=1;rounded=0;" edge="1" parent="sTcFPLHfSmXInMaUVxOe-12">
          <mxGeometry width="50" height="50" relative="1" as="geometry">
            <mxPoint y="70" as="sourcePoint" />
            <mxPoint x="280" y="70" as="targetPoint" />
          </mxGeometry>
        </mxCell>
        <mxCell id="sTcFPLHfSmXInMaUVxOe-29" value="Name" style="text;html=1;align=center;verticalAlign=middle;resizable=0;points=[];autosize=1;strokeColor=none;fillColor=none;" vertex="1" parent="sTcFPLHfSmXInMaUVxOe-12">
          <mxGeometry y="80" width="60" height="30" as="geometry" />
        </mxCell>
        <mxCell id="sTcFPLHfSmXInMaUVxOe-30" value="Amount" style="text;html=1;align=center;verticalAlign=middle;resizable=0;points=[];autosize=1;strokeColor=none;fillColor=none;" vertex="1" parent="sTcFPLHfSmXInMaUVxOe-12">
          <mxGeometry x="110" y="80" width="60" height="30" as="geometry" />
        </mxCell>
        <mxCell id="sTcFPLHfSmXInMaUVxOe-31" value="Date" style="text;html=1;align=center;verticalAlign=middle;resizable=0;points=[];autosize=1;strokeColor=none;fillColor=none;" vertex="1" parent="sTcFPLHfSmXInMaUVxOe-12">
          <mxGeometry x="220" y="80" width="50" height="30" as="geometry" />
        </mxCell>
        <mxCell id="sTcFPLHfSmXInMaUVxOe-32" value="" style="endArrow=none;html=1;rounded=0;" edge="1" parent="sTcFPLHfSmXInMaUVxOe-12">
          <mxGeometry width="50" height="50" relative="1" as="geometry">
            <mxPoint y="120" as="sourcePoint" />
            <mxPoint x="280" y="120" as="targetPoint" />
          </mxGeometry>
        </mxCell>
        <mxCell id="sTcFPLHfSmXInMaUVxOe-33" value="Name" style="text;html=1;align=center;verticalAlign=middle;resizable=0;points=[];autosize=1;strokeColor=none;fillColor=none;" vertex="1" parent="sTcFPLHfSmXInMaUVxOe-12">
          <mxGeometry y="130" width="60" height="30" as="geometry" />
        </mxCell>
        <mxCell id="sTcFPLHfSmXInMaUVxOe-34" value="Amount" style="text;html=1;align=center;verticalAlign=middle;resizable=0;points=[];autosize=1;strokeColor=none;fillColor=none;" vertex="1" parent="sTcFPLHfSmXInMaUVxOe-12">
          <mxGeometry x="110" y="130" width="60" height="30" as="geometry" />
        </mxCell>
        <mxCell id="sTcFPLHfSmXInMaUVxOe-35" value="Date" style="text;html=1;align=center;verticalAlign=middle;resizable=0;points=[];autosize=1;strokeColor=none;fillColor=none;" vertex="1" parent="sTcFPLHfSmXInMaUVxOe-12">
          <mxGeometry x="220" y="130" width="50" height="30" as="geometry" />
        </mxCell>
        <mxCell id="sTcFPLHfSmXInMaUVxOe-36" value="" style="endArrow=none;html=1;rounded=0;" edge="1" parent="sTcFPLHfSmXInMaUVxOe-12">
          <mxGeometry width="50" height="50" relative="1" as="geometry">
            <mxPoint y="170" as="sourcePoint" />
            <mxPoint x="280" y="170" as="targetPoint" />
          </mxGeometry>
        </mxCell>
        <mxCell id="sTcFPLHfSmXInMaUVxOe-37" value="Name" style="text;html=1;align=center;verticalAlign=middle;resizable=0;points=[];autosize=1;strokeColor=none;fillColor=none;" vertex="1" parent="sTcFPLHfSmXInMaUVxOe-12">
          <mxGeometry y="174" width="60" height="30" as="geometry" />
        </mxCell>
        <mxCell id="sTcFPLHfSmXInMaUVxOe-38" value="Amount" style="text;html=1;align=center;verticalAlign=middle;resizable=0;points=[];autosize=1;strokeColor=none;fillColor=none;" vertex="1" parent="sTcFPLHfSmXInMaUVxOe-12">
          <mxGeometry x="110" y="174" width="60" height="30" as="geometry" />
        </mxCell>
        <mxCell id="sTcFPLHfSmXInMaUVxOe-39" value="Date" style="text;html=1;align=center;verticalAlign=middle;resizable=0;points=[];autosize=1;strokeColor=none;fillColor=none;" vertex="1" parent="sTcFPLHfSmXInMaUVxOe-12">
          <mxGeometry x="220" y="174" width="50" height="30" as="geometry" />
        </mxCell>
        <mxCell id="sTcFPLHfSmXInMaUVxOe-40" value="" style="endArrow=none;html=1;rounded=0;" edge="1" parent="sTcFPLHfSmXInMaUVxOe-12">
          <mxGeometry width="50" height="50" relative="1" as="geometry">
            <mxPoint y="214" as="sourcePoint" />
            <mxPoint x="280" y="214" as="targetPoint" />
          </mxGeometry>
        </mxCell>
        <mxCell id="sTcFPLHfSmXInMaUVxOe-41" value="Name" style="text;html=1;align=center;verticalAlign=middle;resizable=0;points=[];autosize=1;strokeColor=none;fillColor=none;" vertex="1" parent="sTcFPLHfSmXInMaUVxOe-12">
          <mxGeometry y="215" width="60" height="30" as="geometry" />
        </mxCell>
        <mxCell id="sTcFPLHfSmXInMaUVxOe-42" value="Amount" style="text;html=1;align=center;verticalAlign=middle;resizable=0;points=[];autosize=1;strokeColor=none;fillColor=none;" vertex="1" parent="sTcFPLHfSmXInMaUVxOe-12">
          <mxGeometry x="110" y="215" width="60" height="30" as="geometry" />
        </mxCell>
        <mxCell id="sTcFPLHfSmXInMaUVxOe-43" value="Date" style="text;html=1;align=center;verticalAlign=middle;resizable=0;points=[];autosize=1;strokeColor=none;fillColor=none;" vertex="1" parent="sTcFPLHfSmXInMaUVxOe-12">
          <mxGeometry x="220" y="215" width="50" height="30" as="geometry" />
        </mxCell>
        <mxCell id="sTcFPLHfSmXInMaUVxOe-44" value="" style="endArrow=none;html=1;rounded=0;" edge="1" parent="sTcFPLHfSmXInMaUVxOe-12">
          <mxGeometry width="50" height="50" relative="1" as="geometry">
            <mxPoint y="255" as="sourcePoint" />
            <mxPoint x="280" y="255" as="targetPoint" />
          </mxGeometry>
        </mxCell>
        <mxCell id="sTcFPLHfSmXInMaUVxOe-45" value="Name" style="text;html=1;align=center;verticalAlign=middle;resizable=0;points=[];autosize=1;strokeColor=none;fillColor=none;" vertex="1" parent="sTcFPLHfSmXInMaUVxOe-12">
          <mxGeometry y="260" width="60" height="30" as="geometry" />
        </mxCell>
        <mxCell id="sTcFPLHfSmXInMaUVxOe-46" value="Amount" style="text;html=1;align=center;verticalAlign=middle;resizable=0;points=[];autosize=1;strokeColor=none;fillColor=none;" vertex="1" parent="sTcFPLHfSmXInMaUVxOe-12">
          <mxGeometry x="110" y="260" width="60" height="30" as="geometry" />
        </mxCell>
        <mxCell id="sTcFPLHfSmXInMaUVxOe-47" value="Date" style="text;html=1;align=center;verticalAlign=middle;resizable=0;points=[];autosize=1;strokeColor=none;fillColor=none;" vertex="1" parent="sTcFPLHfSmXInMaUVxOe-12">
          <mxGeometry x="220" y="260" width="50" height="30" as="geometry" />
        </mxCell>
        <mxCell id="sTcFPLHfSmXInMaUVxOe-48" value="" style="endArrow=none;html=1;rounded=0;" edge="1" parent="sTcFPLHfSmXInMaUVxOe-12">
          <mxGeometry width="50" height="50" relative="1" as="geometry">
            <mxPoint y="300" as="sourcePoint" />
            <mxPoint x="280" y="300" as="targetPoint" />
          </mxGeometry>
        </mxCell>
        <mxCell id="sTcFPLHfSmXInMaUVxOe-49" value="Name" style="text;html=1;align=center;verticalAlign=middle;resizable=0;points=[];autosize=1;strokeColor=none;fillColor=none;" vertex="1" parent="sTcFPLHfSmXInMaUVxOe-12">
          <mxGeometry y="300" width="60" height="30" as="geometry" />
        </mxCell>
        <mxCell id="sTcFPLHfSmXInMaUVxOe-50" value="Amount" style="text;html=1;align=center;verticalAlign=middle;resizable=0;points=[];autosize=1;strokeColor=none;fillColor=none;" vertex="1" parent="sTcFPLHfSmXInMaUVxOe-12">
          <mxGeometry x="110" y="300" width="60" height="30" as="geometry" />
        </mxCell>
        <mxCell id="sTcFPLHfSmXInMaUVxOe-51" value="Date" style="text;html=1;align=center;verticalAlign=middle;resizable=0;points=[];autosize=1;strokeColor=none;fillColor=none;" vertex="1" parent="sTcFPLHfSmXInMaUVxOe-12">
          <mxGeometry x="220" y="300" width="50" height="30" as="geometry" />
        </mxCell>
        <mxCell id="sTcFPLHfSmXInMaUVxOe-52" value="" style="endArrow=none;html=1;rounded=0;" edge="1" parent="sTcFPLHfSmXInMaUVxOe-12">
          <mxGeometry width="50" height="50" relative="1" as="geometry">
            <mxPoint y="340" as="sourcePoint" />
            <mxPoint x="280" y="340" as="targetPoint" />
          </mxGeometry>
        </mxCell>
        <mxCell id="sTcFPLHfSmXInMaUVxOe-53" value="Name" style="text;html=1;align=center;verticalAlign=middle;resizable=0;points=[];autosize=1;strokeColor=none;fillColor=none;" vertex="1" parent="sTcFPLHfSmXInMaUVxOe-12">
          <mxGeometry y="340" width="60" height="30" as="geometry" />
        </mxCell>
        <mxCell id="sTcFPLHfSmXInMaUVxOe-54" value="Amount" style="text;html=1;align=center;verticalAlign=middle;resizable=0;points=[];autosize=1;strokeColor=none;fillColor=none;" vertex="1" parent="sTcFPLHfSmXInMaUVxOe-12">
          <mxGeometry x="110" y="340" width="60" height="30" as="geometry" />
        </mxCell>
        <mxCell id="sTcFPLHfSmXInMaUVxOe-55" value="Date" style="text;html=1;align=center;verticalAlign=middle;resizable=0;points=[];autosize=1;strokeColor=none;fillColor=none;" vertex="1" parent="sTcFPLHfSmXInMaUVxOe-12">
          <mxGeometry x="220" y="340" width="50" height="30" as="geometry" />
        </mxCell>
        <mxCell id="sTcFPLHfSmXInMaUVxOe-56" value="" style="endArrow=none;html=1;rounded=0;" edge="1" parent="sTcFPLHfSmXInMaUVxOe-12">
          <mxGeometry width="50" height="50" relative="1" as="geometry">
            <mxPoint y="380" as="sourcePoint" />
            <mxPoint x="280" y="380" as="targetPoint" />
          </mxGeometry>
        </mxCell>
        <mxCell id="sTcFPLHfSmXInMaUVxOe-57" value="Account Balance" style="swimlane;whiteSpace=wrap;html=1;" vertex="1" parent="1">
          <mxGeometry x="819" y="270" width="280" height="200" as="geometry" />
        </mxCell>
        <mxCell id="sTcFPLHfSmXInMaUVxOe-59" value="AVAILABLE BALANCE&lt;br&gt;$" style="text;html=1;align=center;verticalAlign=middle;resizable=0;points=[];autosize=1;strokeColor=none;fillColor=none;" vertex="1" parent="sTcFPLHfSmXInMaUVxOe-57">
          <mxGeometry x="65" y="80" width="150" height="40" as="geometry" />
        </mxCell>
        <mxCell id="sTcFPLHfSmXInMaUVxOe-81" value="ACCOUNT A" style="rounded=0;whiteSpace=wrap;html=1;" vertex="1" parent="sTcFPLHfSmXInMaUVxOe-57">
          <mxGeometry x="20" y="30" width="240" height="33" as="geometry" />
        </mxCell>
        <mxCell id="sTcFPLHfSmXInMaUVxOe-60" value="Recipient List" style="swimlane;whiteSpace=wrap;html=1;" vertex="1" parent="1">
          <mxGeometry x="60" y="275" width="570" height="190" as="geometry">
            <mxRectangle x="50" y="270" width="110" height="30" as="alternateBounds" />
          </mxGeometry>
        </mxCell>
        <mxCell id="sTcFPLHfSmXInMaUVxOe-61" value="Search" style="whiteSpace=wrap;html=1;" vertex="1" parent="sTcFPLHfSmXInMaUVxOe-60">
          <mxGeometry x="25" y="30" width="520" height="30" as="geometry" />
        </mxCell>
        <mxCell id="sTcFPLHfSmXInMaUVxOe-62" value="Name" style="text;html=1;align=center;verticalAlign=middle;resizable=0;points=[];autosize=1;strokeColor=none;fillColor=none;" vertex="1" parent="sTcFPLHfSmXInMaUVxOe-60">
          <mxGeometry x="25" y="70" width="60" height="30" as="geometry" />
        </mxCell>
        <mxCell id="sTcFPLHfSmXInMaUVxOe-64" value="PAY" style="text;html=1;align=center;verticalAlign=middle;resizable=0;points=[];autosize=1;strokeColor=none;fillColor=none;" vertex="1" parent="sTcFPLHfSmXInMaUVxOe-60">
          <mxGeometry x="495" y="70" width="50" height="30" as="geometry" />
        </mxCell>
        <mxCell id="sTcFPLHfSmXInMaUVxOe-63" value="Account name" style="text;html=1;align=center;verticalAlign=middle;resizable=0;points=[];autosize=1;strokeColor=none;fillColor=none;" vertex="1" parent="sTcFPLHfSmXInMaUVxOe-60">
          <mxGeometry x="235" y="70" width="100" height="30" as="geometry" />
        </mxCell>
        <mxCell id="sTcFPLHfSmXInMaUVxOe-66" value="Name" style="text;html=1;align=center;verticalAlign=middle;resizable=0;points=[];autosize=1;strokeColor=none;fillColor=none;" vertex="1" parent="sTcFPLHfSmXInMaUVxOe-60">
          <mxGeometry x="25" y="100" width="60" height="30" as="geometry" />
        </mxCell>
        <mxCell id="sTcFPLHfSmXInMaUVxOe-67" value="PAY" style="text;html=1;align=center;verticalAlign=middle;resizable=0;points=[];autosize=1;strokeColor=none;fillColor=none;" vertex="1" parent="sTcFPLHfSmXInMaUVxOe-60">
          <mxGeometry x="495" y="100" width="50" height="30" as="geometry" />
        </mxCell>
        <mxCell id="sTcFPLHfSmXInMaUVxOe-68" value="Account name" style="text;html=1;align=center;verticalAlign=middle;resizable=0;points=[];autosize=1;strokeColor=none;fillColor=none;" vertex="1" parent="sTcFPLHfSmXInMaUVxOe-60">
          <mxGeometry x="235" y="100" width="100" height="30" as="geometry" />
        </mxCell>
        <mxCell id="sTcFPLHfSmXInMaUVxOe-69" value="" style="endArrow=none;html=1;rounded=0;exitX=0;exitY=0.5;exitDx=0;exitDy=0;entryX=1;entryY=0.5;entryDx=0;entryDy=0;" edge="1" parent="sTcFPLHfSmXInMaUVxOe-60">
          <mxGeometry width="50" height="50" relative="1" as="geometry">
            <mxPoint y="130" as="sourcePoint" />
            <mxPoint x="570" y="130" as="targetPoint" />
          </mxGeometry>
        </mxCell>
        <mxCell id="sTcFPLHfSmXInMaUVxOe-70" value="Name" style="text;html=1;align=center;verticalAlign=middle;resizable=0;points=[];autosize=1;strokeColor=none;fillColor=none;" vertex="1" parent="sTcFPLHfSmXInMaUVxOe-60">
          <mxGeometry x="25" y="130" width="60" height="30" as="geometry" />
        </mxCell>
        <mxCell id="sTcFPLHfSmXInMaUVxOe-71" value="PAY" style="text;html=1;align=center;verticalAlign=middle;resizable=0;points=[];autosize=1;strokeColor=none;fillColor=none;" vertex="1" parent="sTcFPLHfSmXInMaUVxOe-60">
          <mxGeometry x="495" y="130" width="50" height="30" as="geometry" />
        </mxCell>
        <mxCell id="sTcFPLHfSmXInMaUVxOe-72" value="Account name" style="text;html=1;align=center;verticalAlign=middle;resizable=0;points=[];autosize=1;strokeColor=none;fillColor=none;" vertex="1" parent="sTcFPLHfSmXInMaUVxOe-60">
          <mxGeometry x="235" y="130" width="100" height="30" as="geometry" />
        </mxCell>
        <mxCell id="sTcFPLHfSmXInMaUVxOe-73" value="" style="endArrow=none;html=1;rounded=0;exitX=0;exitY=0.5;exitDx=0;exitDy=0;entryX=1;entryY=0.5;entryDx=0;entryDy=0;" edge="1" parent="sTcFPLHfSmXInMaUVxOe-60">
          <mxGeometry width="50" height="50" relative="1" as="geometry">
            <mxPoint y="160" as="sourcePoint" />
            <mxPoint x="570" y="160" as="targetPoint" />
          </mxGeometry>
        </mxCell>
        <mxCell id="sTcFPLHfSmXInMaUVxOe-74" value="Name" style="text;html=1;align=center;verticalAlign=middle;resizable=0;points=[];autosize=1;strokeColor=none;fillColor=none;" vertex="1" parent="sTcFPLHfSmXInMaUVxOe-60">
          <mxGeometry x="25" y="160" width="60" height="30" as="geometry" />
        </mxCell>
        <mxCell id="sTcFPLHfSmXInMaUVxOe-75" value="PAY" style="text;html=1;align=center;verticalAlign=middle;resizable=0;points=[];autosize=1;strokeColor=none;fillColor=none;" vertex="1" parent="sTcFPLHfSmXInMaUVxOe-60">
          <mxGeometry x="495" y="160" width="50" height="30" as="geometry" />
        </mxCell>
        <mxCell id="sTcFPLHfSmXInMaUVxOe-76" value="Account name" style="text;html=1;align=center;verticalAlign=middle;resizable=0;points=[];autosize=1;strokeColor=none;fillColor=none;" vertex="1" parent="sTcFPLHfSmXInMaUVxOe-60">
          <mxGeometry x="235" y="160" width="100" height="30" as="geometry" />
        </mxCell>
        <mxCell id="sTcFPLHfSmXInMaUVxOe-77" value="" style="endArrow=none;html=1;rounded=0;exitX=0;exitY=0.5;exitDx=0;exitDy=0;entryX=1;entryY=0.5;entryDx=0;entryDy=0;" edge="1" parent="sTcFPLHfSmXInMaUVxOe-60">
          <mxGeometry width="50" height="50" relative="1" as="geometry">
            <mxPoint y="190" as="sourcePoint" />
            <mxPoint x="570" y="190" as="targetPoint" />
          </mxGeometry>
        </mxCell>
        <mxCell id="sTcFPLHfSmXInMaUVxOe-65" value="" style="endArrow=none;html=1;rounded=0;exitX=0;exitY=0.5;exitDx=0;exitDy=0;entryX=1;entryY=0.5;entryDx=0;entryDy=0;" edge="1" parent="1" source="sTcFPLHfSmXInMaUVxOe-60" target="sTcFPLHfSmXInMaUVxOe-60">
          <mxGeometry width="50" height="50" relative="1" as="geometry">
            <mxPoint x="520" y="450" as="sourcePoint" />
            <mxPoint x="570" y="400" as="targetPoint" />
          </mxGeometry>
        </mxCell>
        <mxCell id="sTcFPLHfSmXInMaUVxOe-78" value="Scheduled Payments" style="swimlane;whiteSpace=wrap;html=1;" vertex="1" parent="1">
          <mxGeometry x="60" y="464" width="570" height="176" as="geometry" />
        </mxCell>
        <mxCell id="sTcFPLHfSmXInMaUVxOe-82" value="Name" style="text;html=1;align=center;verticalAlign=middle;whiteSpace=wrap;rounded=0;" vertex="1" parent="sTcFPLHfSmXInMaUVxOe-78">
          <mxGeometry x="25" y="23" width="60" height="30" as="geometry" />
        </mxCell>
        <mxCell id="sTcFPLHfSmXInMaUVxOe-83" value="Amount" style="text;html=1;align=center;verticalAlign=middle;resizable=0;points=[];autosize=1;strokeColor=none;fillColor=none;" vertex="1" parent="sTcFPLHfSmXInMaUVxOe-78">
          <mxGeometry x="255" y="23" width="60" height="30" as="geometry" />
        </mxCell>
        <mxCell id="sTcFPLHfSmXInMaUVxOe-84" value="Interval" style="text;html=1;align=center;verticalAlign=middle;resizable=0;points=[];autosize=1;strokeColor=none;fillColor=none;" vertex="1" parent="sTcFPLHfSmXInMaUVxOe-78">
          <mxGeometry x="490" y="23" width="60" height="30" as="geometry" />
        </mxCell>
        <mxCell id="sTcFPLHfSmXInMaUVxOe-85" value="" style="endArrow=none;html=1;rounded=0;exitX=0;exitY=0.5;exitDx=0;exitDy=0;entryX=1;entryY=0.5;entryDx=0;entryDy=0;" edge="1" parent="sTcFPLHfSmXInMaUVxOe-78">
          <mxGeometry width="50" height="50" relative="1" as="geometry">
            <mxPoint y="49" as="sourcePoint" />
            <mxPoint x="570" y="49" as="targetPoint" />
          </mxGeometry>
        </mxCell>
        <mxCell id="sTcFPLHfSmXInMaUVxOe-86" value="Name" style="text;html=1;align=center;verticalAlign=middle;whiteSpace=wrap;rounded=0;" vertex="1" parent="sTcFPLHfSmXInMaUVxOe-78">
          <mxGeometry x="25" y="53" width="60" height="30" as="geometry" />
        </mxCell>
        <mxCell id="sTcFPLHfSmXInMaUVxOe-87" value="Amount" style="text;html=1;align=center;verticalAlign=middle;resizable=0;points=[];autosize=1;strokeColor=none;fillColor=none;" vertex="1" parent="sTcFPLHfSmXInMaUVxOe-78">
          <mxGeometry x="255" y="53" width="60" height="30" as="geometry" />
        </mxCell>
        <mxCell id="sTcFPLHfSmXInMaUVxOe-88" value="Interval" style="text;html=1;align=center;verticalAlign=middle;resizable=0;points=[];autosize=1;strokeColor=none;fillColor=none;" vertex="1" parent="sTcFPLHfSmXInMaUVxOe-78">
          <mxGeometry x="490" y="53" width="60" height="30" as="geometry" />
        </mxCell>
        <mxCell id="sTcFPLHfSmXInMaUVxOe-89" value="" style="endArrow=none;html=1;rounded=0;exitX=0;exitY=0.5;exitDx=0;exitDy=0;entryX=1;entryY=0.5;entryDx=0;entryDy=0;" edge="1" parent="sTcFPLHfSmXInMaUVxOe-78">
          <mxGeometry width="50" height="50" relative="1" as="geometry">
            <mxPoint y="79" as="sourcePoint" />
            <mxPoint x="570" y="79" as="targetPoint" />
          </mxGeometry>
        </mxCell>
        <mxCell id="sTcFPLHfSmXInMaUVxOe-90" value="Name" style="text;html=1;align=center;verticalAlign=middle;whiteSpace=wrap;rounded=0;" vertex="1" parent="sTcFPLHfSmXInMaUVxOe-78">
          <mxGeometry x="25" y="83" width="60" height="30" as="geometry" />
        </mxCell>
        <mxCell id="sTcFPLHfSmXInMaUVxOe-91" value="Amount" style="text;html=1;align=center;verticalAlign=middle;resizable=0;points=[];autosize=1;strokeColor=none;fillColor=none;" vertex="1" parent="sTcFPLHfSmXInMaUVxOe-78">
          <mxGeometry x="255" y="83" width="60" height="30" as="geometry" />
        </mxCell>
        <mxCell id="sTcFPLHfSmXInMaUVxOe-92" value="Interval" style="text;html=1;align=center;verticalAlign=middle;resizable=0;points=[];autosize=1;strokeColor=none;fillColor=none;" vertex="1" parent="sTcFPLHfSmXInMaUVxOe-78">
          <mxGeometry x="490" y="83" width="60" height="30" as="geometry" />
        </mxCell>
        <mxCell id="sTcFPLHfSmXInMaUVxOe-93" value="" style="endArrow=none;html=1;rounded=0;exitX=0;exitY=0.5;exitDx=0;exitDy=0;entryX=1;entryY=0.5;entryDx=0;entryDy=0;" edge="1" parent="sTcFPLHfSmXInMaUVxOe-78">
          <mxGeometry width="50" height="50" relative="1" as="geometry">
            <mxPoint y="109" as="sourcePoint" />
            <mxPoint x="570" y="109" as="targetPoint" />
          </mxGeometry>
        </mxCell>
        <mxCell id="sTcFPLHfSmXInMaUVxOe-94" value="Name" style="text;html=1;align=center;verticalAlign=middle;whiteSpace=wrap;rounded=0;" vertex="1" parent="sTcFPLHfSmXInMaUVxOe-78">
          <mxGeometry x="25" y="113" width="60" height="30" as="geometry" />
        </mxCell>
        <mxCell id="sTcFPLHfSmXInMaUVxOe-95" value="Amount" style="text;html=1;align=center;verticalAlign=middle;resizable=0;points=[];autosize=1;strokeColor=none;fillColor=none;" vertex="1" parent="sTcFPLHfSmXInMaUVxOe-78">
          <mxGeometry x="255" y="113" width="60" height="30" as="geometry" />
        </mxCell>
        <mxCell id="sTcFPLHfSmXInMaUVxOe-96" value="Interval" style="text;html=1;align=center;verticalAlign=middle;resizable=0;points=[];autosize=1;strokeColor=none;fillColor=none;" vertex="1" parent="sTcFPLHfSmXInMaUVxOe-78">
          <mxGeometry x="490" y="113" width="60" height="30" as="geometry" />
        </mxCell>
        <mxCell id="sTcFPLHfSmXInMaUVxOe-97" value="" style="endArrow=none;html=1;rounded=0;exitX=0;exitY=0.5;exitDx=0;exitDy=0;entryX=1;entryY=0.5;entryDx=0;entryDy=0;" edge="1" parent="sTcFPLHfSmXInMaUVxOe-78">
          <mxGeometry width="50" height="50" relative="1" as="geometry">
            <mxPoint y="139" as="sourcePoint" />
            <mxPoint x="570" y="139" as="targetPoint" />
          </mxGeometry>
        </mxCell>
        <mxCell id="sTcFPLHfSmXInMaUVxOe-98" value="Name" style="text;html=1;align=center;verticalAlign=middle;whiteSpace=wrap;rounded=0;" vertex="1" parent="sTcFPLHfSmXInMaUVxOe-78">
          <mxGeometry x="25" y="143" width="60" height="30" as="geometry" />
        </mxCell>
        <mxCell id="sTcFPLHfSmXInMaUVxOe-99" value="Amount" style="text;html=1;align=center;verticalAlign=middle;resizable=0;points=[];autosize=1;strokeColor=none;fillColor=none;" vertex="1" parent="sTcFPLHfSmXInMaUVxOe-78">
          <mxGeometry x="255" y="143" width="60" height="30" as="geometry" />
        </mxCell>
        <mxCell id="sTcFPLHfSmXInMaUVxOe-100" value="Interval" style="text;html=1;align=center;verticalAlign=middle;resizable=0;points=[];autosize=1;strokeColor=none;fillColor=none;" vertex="1" parent="sTcFPLHfSmXInMaUVxOe-78">
          <mxGeometry x="490" y="143" width="60" height="30" as="geometry" />
        </mxCell>
        <mxCell id="sTcFPLHfSmXInMaUVxOe-101" value="" style="endArrow=none;html=1;rounded=0;exitX=0;exitY=0.5;exitDx=0;exitDy=0;entryX=1;entryY=0.5;entryDx=0;entryDy=0;" edge="1" parent="sTcFPLHfSmXInMaUVxOe-78">
          <mxGeometry width="50" height="50" relative="1" as="geometry">
            <mxPoint y="169" as="sourcePoint" />
            <mxPoint x="570" y="169" as="targetPoint" />
          </mxGeometry>
        </mxCell>
        <mxCell id="sTcFPLHfSmXInMaUVxOe-102" value="&lt;font style=&quot;font-size: 31px;&quot;&gt;Bill Paying&lt;/font&gt;" style="text;html=1;align=center;verticalAlign=middle;whiteSpace=wrap;rounded=0;" vertex="1" parent="1">
          <mxGeometry x="470" y="60" width="160" height="30" as="geometry" />
        </mxCell>
      </root>
    </mxGraphModel>
  </diagram>
</mxfile>
